<svg width="116" height="116" viewBox="0 0 116 116" fill="none" xmlns="http://www.w3.org/2000/svg">
<circle cx="58" cy="58" r="56.5" fill="#424242" stroke="#00D675" stroke-width="3"/>
<g filter="url(#filter0_d_29_11)">
<path d="M75.1214 57.9998L55.8233 55.8229L58.0001 75.1212C59.0076 77.7193 60.4522 80.1967 62.5085 82.253C65.7267 85.4711 70.9444 85.4711 74.1625 82.253C75.7343 80.6812 76.5363 78.6324 76.5726 76.5726C78.6325 76.5361 80.6813 75.7342 82.253 74.1625C85.4713 70.9443 85.4713 65.7266 82.253 62.5085C80.1968 60.452 77.7194 59.0073 75.1214 57.9998Z" fill="#6CD800"/>
<path d="M75.1214 57.9998C77.7195 56.9923 80.1969 55.5477 82.2532 53.4913C85.4714 50.2731 85.4714 45.0555 82.2532 41.8373C80.6814 40.2656 78.6326 39.4636 76.5727 39.4272C76.5363 37.3673 75.7344 35.3186 74.1626 33.7468C70.9445 30.5287 65.7268 30.5287 62.5086 33.7468C60.4524 35.803 59.0077 38.2804 58.0002 40.8786L55.8233 57.9998H75.1214Z" fill="#53B400"/>
<path d="M40.8788 57.9998C38.2807 59.0073 35.8033 60.4519 33.747 62.5083C30.5288 65.7265 30.5288 70.9441 33.747 74.1622C35.3187 75.734 37.3675 76.536 39.4274 76.5724C39.4638 78.6323 40.2657 80.681 41.8375 82.2528C45.0557 85.471 50.2733 85.471 53.4915 82.2528C55.5478 80.1964 56.9924 77.719 57.9999 75.121V55.8229L40.8788 57.9998Z" fill="#93F340"/>
<path d="M58.0007 40.8791C56.9932 38.281 55.5486 35.8036 53.4922 33.7473C50.274 30.5292 45.0564 30.5292 41.8383 33.7473C40.2665 35.319 39.4645 37.3679 39.428 39.4277C37.3681 39.4641 35.3194 40.266 33.7476 41.8378C30.5295 45.0559 30.5295 50.2736 33.7476 53.4918C35.804 55.5481 38.2814 56.9928 40.8795 58.0003H58.0007V40.8791Z" fill="#6CD800"/>
<path d="M71.0943 47.2146L68.7853 44.9057L58 55.691L56.9116 57.9999L58 60.3089L68.7853 71.0942L71.0943 68.7852L60.309 57.9999L71.0943 47.2146Z" fill="#93F340"/>
<path d="M47.2147 44.9057L44.9059 47.2146L55.6912 57.9999L44.9059 68.7852L47.2147 71.0942L58.0001 60.3089V55.691L47.2147 44.9057Z" fill="#CFFFA5"/>
</g>
<defs>
<filter id="filter0_d_29_11" x="27.3334" y="31.3332" width="61.3335" height="61.3334" filterUnits="userSpaceOnUse" color-interpolation-filters="sRGB">
<feFlood flood-opacity="0" result="BackgroundImageFix"/>
<feColorMatrix in="SourceAlpha" type="matrix" values="0 0 0 0 0 0 0 0 0 0 0 0 0 0 0 0 0 0 127 0" result="hardAlpha"/>
<feOffset dy="4"/>
<feGaussianBlur stdDeviation="2"/>
<feComposite in2="hardAlpha" operator="out"/>
<feColorMatrix type="matrix" values="0 0 0 0 0 0 0 0 0 0 0 0 0 0 0 0 0 0 0.25 0"/>
<feBlend mode="normal" in2="BackgroundImageFix" result="effect1_dropShadow_29_11"/>
<feBlend mode="normal" in="SourceGraphic" in2="effect1_dropShadow_29_11" result="shape"/>
</filter>
</defs>
</svg>
